# xmcd CD database file
#
# Track frame offsets:
#	150
#	13671
#	27416
#	48734
#	75847
#	88874
#	103183
#	122369
#	127530
#	150596
#	170985
#
# Disc length: 2545 seconds
#
# Revision: 0
# Processed by: cddbd v1.5.2PL0 Copyright (c) Steve Scherf et al.
# Submitted via: CDex 1.70beta2
#
DISCID=7f09ef0b
DTITLE=KELLIE RUCKER - Church of Texas
DYEAR=2007
DGENRE=Blues
TTITLE0=I Ain't Scared of Nothin' But Love
TTITLE1=Elysium
TTITLE2=Never Goin' Home
TTITLE3=Mississippi Rain
TTITLE4=Love And War
TTITLE5=Take Me As I Am
TTITLE6=Church Of Texas
TTITLE7=Shrimp Cocktail
TTITLE8=Wild Wild West
TTITLE9=Took The Wind Out Of My Sails
TTITLE10=The Heart's Got A Mind Of Its Own
EXTD=YEAR: 2007
EXTT0=
EXTT1=
EXTT2=
EXTT3=
EXTT4=
EXTT5=
EXTT6=
EXTT7=
EXTT8=
EXTT9=
EXTT10=
PLAYORDER=
